<mxfile host="app.diagrams.net" modified="2024-03-05T08:08:38.489Z" agent="Mozilla/5.0 (Windows NT 10.0; Win64; x64) AppleWebKit/537.36 (KHTML, like Gecko) Chrome/122.0.0.0 Safari/537.36" etag="0xCHioURr_CCdFVWtFd-" version="24.0.1" type="device">
  <diagram name="Page-1" id="Qb6bMSQEW6Jbz9eqjURc">
    <mxGraphModel dx="2894" dy="1054" grid="1" gridSize="10" guides="1" tooltips="1" connect="1" arrows="1" fold="1" page="1" pageScale="1" pageWidth="850" pageHeight="1100" math="0" shadow="0">
      <root>
        <mxCell id="0" />
        <mxCell id="1" parent="0" />
        <mxCell id="EavETX-BDon8GQSfiyvn-1" value="User" style="rounded=0;whiteSpace=wrap;html=1;" vertex="1" parent="1">
          <mxGeometry x="160" y="280" width="120" height="60" as="geometry" />
        </mxCell>
        <mxCell id="EavETX-BDon8GQSfiyvn-2" value="id" style="ellipse;whiteSpace=wrap;html=1;fontStyle=4" vertex="1" parent="1">
          <mxGeometry x="-50" y="170" width="120" height="80" as="geometry" />
        </mxCell>
        <mxCell id="EavETX-BDon8GQSfiyvn-3" value="fullname" style="ellipse;whiteSpace=wrap;html=1;" vertex="1" parent="1">
          <mxGeometry x="70" y="80" width="120" height="80" as="geometry" />
        </mxCell>
        <mxCell id="EavETX-BDon8GQSfiyvn-6" value="username" style="ellipse;whiteSpace=wrap;html=1;" vertex="1" parent="1">
          <mxGeometry x="210" y="70" width="120" height="80" as="geometry" />
        </mxCell>
        <mxCell id="EavETX-BDon8GQSfiyvn-7" value="password" style="ellipse;whiteSpace=wrap;html=1;" vertex="1" parent="1">
          <mxGeometry x="340" y="110" width="120" height="80" as="geometry" />
        </mxCell>
        <mxCell id="EavETX-BDon8GQSfiyvn-8" value="email" style="ellipse;whiteSpace=wrap;html=1;" vertex="1" parent="1">
          <mxGeometry x="400" y="200" width="120" height="80" as="geometry" />
        </mxCell>
        <mxCell id="EavETX-BDon8GQSfiyvn-11" value="" style="endArrow=none;html=1;rounded=0;" edge="1" parent="1" target="EavETX-BDon8GQSfiyvn-7">
          <mxGeometry width="50" height="50" relative="1" as="geometry">
            <mxPoint x="280" y="280" as="sourcePoint" />
            <mxPoint x="250" y="290" as="targetPoint" />
            <Array as="points">
              <mxPoint x="360" y="180" />
            </Array>
          </mxGeometry>
        </mxCell>
        <mxCell id="EavETX-BDon8GQSfiyvn-12" value="" style="endArrow=none;html=1;rounded=0;entryX=0.175;entryY=0.938;entryDx=0;entryDy=0;entryPerimeter=0;exitX=1;exitY=0.5;exitDx=0;exitDy=0;" edge="1" parent="1" source="EavETX-BDon8GQSfiyvn-1" target="EavETX-BDon8GQSfiyvn-8">
          <mxGeometry width="50" height="50" relative="1" as="geometry">
            <mxPoint x="200" y="340" as="sourcePoint" />
            <mxPoint x="250" y="290" as="targetPoint" />
          </mxGeometry>
        </mxCell>
        <mxCell id="EavETX-BDon8GQSfiyvn-13" value="" style="endArrow=none;html=1;rounded=0;exitX=0.592;exitY=0;exitDx=0;exitDy=0;exitPerimeter=0;" edge="1" parent="1" source="EavETX-BDon8GQSfiyvn-1">
          <mxGeometry width="50" height="50" relative="1" as="geometry">
            <mxPoint x="200" y="340" as="sourcePoint" />
            <mxPoint x="261.0264454810972" y="149.5501106573854" as="targetPoint" />
          </mxGeometry>
        </mxCell>
        <mxCell id="EavETX-BDon8GQSfiyvn-14" value="" style="endArrow=none;html=1;rounded=0;" edge="1" parent="1" source="EavETX-BDon8GQSfiyvn-1" target="EavETX-BDon8GQSfiyvn-3">
          <mxGeometry width="50" height="50" relative="1" as="geometry">
            <mxPoint x="200" y="340" as="sourcePoint" />
            <mxPoint x="250" y="290" as="targetPoint" />
          </mxGeometry>
        </mxCell>
        <mxCell id="EavETX-BDon8GQSfiyvn-15" value="" style="endArrow=none;html=1;rounded=0;" edge="1" parent="1" target="EavETX-BDon8GQSfiyvn-2">
          <mxGeometry width="50" height="50" relative="1" as="geometry">
            <mxPoint x="160" y="310" as="sourcePoint" />
            <mxPoint x="250" y="290" as="targetPoint" />
          </mxGeometry>
        </mxCell>
        <mxCell id="EavETX-BDon8GQSfiyvn-50" style="edgeStyle=orthogonalEdgeStyle;rounded=0;orthogonalLoop=1;jettySize=auto;html=1;entryX=0;entryY=0.5;entryDx=0;entryDy=0;" edge="1" parent="1" source="EavETX-BDon8GQSfiyvn-16" target="EavETX-BDon8GQSfiyvn-46">
          <mxGeometry relative="1" as="geometry">
            <Array as="points">
              <mxPoint x="1097" y="640" />
            </Array>
          </mxGeometry>
        </mxCell>
        <mxCell id="EavETX-BDon8GQSfiyvn-57" style="edgeStyle=orthogonalEdgeStyle;rounded=0;orthogonalLoop=1;jettySize=auto;html=1;" edge="1" parent="1" source="EavETX-BDon8GQSfiyvn-16" target="EavETX-BDon8GQSfiyvn-56">
          <mxGeometry relative="1" as="geometry">
            <Array as="points">
              <mxPoint x="680" y="770" />
            </Array>
          </mxGeometry>
        </mxCell>
        <mxCell id="EavETX-BDon8GQSfiyvn-16" value="quiz" style="rounded=0;whiteSpace=wrap;html=1;" vertex="1" parent="1">
          <mxGeometry x="620" y="605" width="120" height="60" as="geometry" />
        </mxCell>
        <mxCell id="EavETX-BDon8GQSfiyvn-17" value="id" style="ellipse;whiteSpace=wrap;html=1;fontStyle=4" vertex="1" parent="1">
          <mxGeometry x="456" y="555" width="120" height="80" as="geometry" />
        </mxCell>
        <mxCell id="EavETX-BDon8GQSfiyvn-19" value="id_admin" style="ellipse;whiteSpace=wrap;html=1;" vertex="1" parent="1">
          <mxGeometry x="526" y="485" width="120" height="80" as="geometry" />
        </mxCell>
        <mxCell id="EavETX-BDon8GQSfiyvn-20" value="Title" style="ellipse;whiteSpace=wrap;html=1;" vertex="1" parent="1">
          <mxGeometry x="626" y="425" width="120" height="80" as="geometry" />
        </mxCell>
        <mxCell id="EavETX-BDon8GQSfiyvn-22" value="kategori_id" style="ellipse;whiteSpace=wrap;html=1;" vertex="1" parent="1">
          <mxGeometry x="756" y="425" width="120" height="80" as="geometry" />
        </mxCell>
        <mxCell id="EavETX-BDon8GQSfiyvn-23" value="schedule" style="ellipse;whiteSpace=wrap;html=1;" vertex="1" parent="1">
          <mxGeometry x="806" y="495" width="120" height="80" as="geometry" />
        </mxCell>
        <mxCell id="EavETX-BDon8GQSfiyvn-24" value="random" style="ellipse;whiteSpace=wrap;html=1;" vertex="1" parent="1">
          <mxGeometry x="806" y="585" width="120" height="80" as="geometry" />
        </mxCell>
        <mxCell id="EavETX-BDon8GQSfiyvn-25" value="" style="endArrow=none;html=1;rounded=0;" edge="1" parent="1" source="EavETX-BDon8GQSfiyvn-16" target="EavETX-BDon8GQSfiyvn-23">
          <mxGeometry width="50" height="50" relative="1" as="geometry">
            <mxPoint x="586" y="545" as="sourcePoint" />
            <mxPoint x="636" y="495" as="targetPoint" />
          </mxGeometry>
        </mxCell>
        <mxCell id="EavETX-BDon8GQSfiyvn-26" value="" style="endArrow=none;html=1;rounded=0;entryX=0.5;entryY=1;entryDx=0;entryDy=0;" edge="1" parent="1" source="EavETX-BDon8GQSfiyvn-16" target="EavETX-BDon8GQSfiyvn-22">
          <mxGeometry width="50" height="50" relative="1" as="geometry">
            <mxPoint x="586" y="545" as="sourcePoint" />
            <mxPoint x="636" y="495" as="targetPoint" />
          </mxGeometry>
        </mxCell>
        <mxCell id="EavETX-BDon8GQSfiyvn-27" value="" style="endArrow=none;html=1;rounded=0;exitX=0.858;exitY=0.925;exitDx=0;exitDy=0;exitPerimeter=0;" edge="1" parent="1" source="EavETX-BDon8GQSfiyvn-19" target="EavETX-BDon8GQSfiyvn-16">
          <mxGeometry width="50" height="50" relative="1" as="geometry">
            <mxPoint x="586" y="545" as="sourcePoint" />
            <mxPoint x="636" y="495" as="targetPoint" />
          </mxGeometry>
        </mxCell>
        <mxCell id="EavETX-BDon8GQSfiyvn-28" value="" style="endArrow=none;html=1;rounded=0;entryX=0.458;entryY=1.045;entryDx=0;entryDy=0;entryPerimeter=0;" edge="1" parent="1" source="EavETX-BDon8GQSfiyvn-16" target="EavETX-BDon8GQSfiyvn-20">
          <mxGeometry width="50" height="50" relative="1" as="geometry">
            <mxPoint x="586" y="545" as="sourcePoint" />
            <mxPoint x="626" y="505" as="targetPoint" />
          </mxGeometry>
        </mxCell>
        <mxCell id="EavETX-BDon8GQSfiyvn-29" value="" style="endArrow=none;html=1;rounded=0;exitX=0;exitY=0.5;exitDx=0;exitDy=0;" edge="1" parent="1" source="EavETX-BDon8GQSfiyvn-16" target="EavETX-BDon8GQSfiyvn-17">
          <mxGeometry width="50" height="50" relative="1" as="geometry">
            <mxPoint x="586" y="545" as="sourcePoint" />
            <mxPoint x="636" y="495" as="targetPoint" />
          </mxGeometry>
        </mxCell>
        <mxCell id="EavETX-BDon8GQSfiyvn-30" value="" style="endArrow=none;html=1;rounded=0;exitX=1.002;exitY=0.36;exitDx=0;exitDy=0;exitPerimeter=0;" edge="1" parent="1" source="EavETX-BDon8GQSfiyvn-16" target="EavETX-BDon8GQSfiyvn-24">
          <mxGeometry width="50" height="50" relative="1" as="geometry">
            <mxPoint x="749" y="645" as="sourcePoint" />
            <mxPoint x="835" y="584" as="targetPoint" />
          </mxGeometry>
        </mxCell>
        <mxCell id="EavETX-BDon8GQSfiyvn-94" style="edgeStyle=orthogonalEdgeStyle;rounded=0;orthogonalLoop=1;jettySize=auto;html=1;exitX=0;exitY=0.5;exitDx=0;exitDy=0;" edge="1" parent="1" source="EavETX-BDon8GQSfiyvn-31" target="EavETX-BDon8GQSfiyvn-1">
          <mxGeometry relative="1" as="geometry">
            <Array as="points">
              <mxPoint x="636" y="320" />
              <mxPoint x="458" y="320" />
              <mxPoint x="458" y="310" />
            </Array>
          </mxGeometry>
        </mxCell>
        <mxCell id="EavETX-BDon8GQSfiyvn-31" value="&lt;div&gt;attempt&lt;/div&gt;" style="rhombus;whiteSpace=wrap;html=1;" vertex="1" parent="1">
          <mxGeometry x="636" y="260" width="150" height="90" as="geometry" />
        </mxCell>
        <mxCell id="EavETX-BDon8GQSfiyvn-93" style="edgeStyle=orthogonalEdgeStyle;rounded=0;orthogonalLoop=1;jettySize=auto;html=1;entryX=1;entryY=0.5;entryDx=0;entryDy=0;" edge="1" parent="1" source="EavETX-BDon8GQSfiyvn-34" target="EavETX-BDon8GQSfiyvn-31">
          <mxGeometry relative="1" as="geometry">
            <Array as="points">
              <mxPoint x="1020" y="249" />
              <mxPoint x="1020" y="305" />
            </Array>
          </mxGeometry>
        </mxCell>
        <mxCell id="EavETX-BDon8GQSfiyvn-34" value="question" style="rounded=0;whiteSpace=wrap;html=1;" vertex="1" parent="1">
          <mxGeometry x="1076" y="219" width="120" height="60" as="geometry" />
        </mxCell>
        <mxCell id="EavETX-BDon8GQSfiyvn-35" value="id" style="ellipse;whiteSpace=wrap;html=1;" vertex="1" parent="1">
          <mxGeometry x="866" y="209" width="120" height="80" as="geometry" />
        </mxCell>
        <mxCell id="EavETX-BDon8GQSfiyvn-36" value="id_quiz" style="ellipse;whiteSpace=wrap;html=1;" vertex="1" parent="1">
          <mxGeometry x="926" y="129" width="120" height="80" as="geometry" />
        </mxCell>
        <mxCell id="EavETX-BDon8GQSfiyvn-37" value="Title" style="ellipse;whiteSpace=wrap;html=1;" vertex="1" parent="1">
          <mxGeometry x="1036" y="79" width="120" height="80" as="geometry" />
        </mxCell>
        <mxCell id="EavETX-BDon8GQSfiyvn-38" value="choice_1" style="ellipse;whiteSpace=wrap;html=1;" vertex="1" parent="1">
          <mxGeometry x="1166" y="89" width="120" height="80" as="geometry" />
        </mxCell>
        <mxCell id="EavETX-BDon8GQSfiyvn-39" value="answer" style="ellipse;whiteSpace=wrap;html=1;" vertex="1" parent="1">
          <mxGeometry x="1190" y="370" width="120" height="80" as="geometry" />
        </mxCell>
        <mxCell id="EavETX-BDon8GQSfiyvn-40" value="" style="endArrow=none;html=1;rounded=0;exitX=0.5;exitY=0;exitDx=0;exitDy=0;entryX=0.5;entryY=1;entryDx=0;entryDy=0;" edge="1" parent="1" source="EavETX-BDon8GQSfiyvn-34" target="EavETX-BDon8GQSfiyvn-37">
          <mxGeometry width="50" height="50" relative="1" as="geometry">
            <mxPoint x="1166" y="89" as="sourcePoint" />
            <mxPoint x="1216" y="39" as="targetPoint" />
          </mxGeometry>
        </mxCell>
        <mxCell id="EavETX-BDon8GQSfiyvn-41" value="" style="endArrow=none;html=1;rounded=0;exitX=0.75;exitY=0;exitDx=0;exitDy=0;" edge="1" parent="1" source="EavETX-BDon8GQSfiyvn-34" target="EavETX-BDon8GQSfiyvn-38">
          <mxGeometry width="50" height="50" relative="1" as="geometry">
            <mxPoint x="1146" y="229" as="sourcePoint" />
            <mxPoint x="1106" y="169" as="targetPoint" />
          </mxGeometry>
        </mxCell>
        <mxCell id="EavETX-BDon8GQSfiyvn-42" value="" style="endArrow=none;html=1;rounded=0;exitX=1;exitY=0.5;exitDx=0;exitDy=0;" edge="1" parent="1" source="EavETX-BDon8GQSfiyvn-34" target="EavETX-BDon8GQSfiyvn-39">
          <mxGeometry width="50" height="50" relative="1" as="geometry">
            <mxPoint x="1176" y="229" as="sourcePoint" />
            <mxPoint x="1212" y="176" as="targetPoint" />
          </mxGeometry>
        </mxCell>
        <mxCell id="EavETX-BDon8GQSfiyvn-43" value="" style="endArrow=none;html=1;rounded=0;exitX=1;exitY=1;exitDx=0;exitDy=0;" edge="1" parent="1" source="EavETX-BDon8GQSfiyvn-36" target="EavETX-BDon8GQSfiyvn-34">
          <mxGeometry width="50" height="50" relative="1" as="geometry">
            <mxPoint x="1206" y="259" as="sourcePoint" />
            <mxPoint x="1251" y="245" as="targetPoint" />
          </mxGeometry>
        </mxCell>
        <mxCell id="EavETX-BDon8GQSfiyvn-44" value="" style="endArrow=none;html=1;rounded=0;exitX=1;exitY=0.567;exitDx=0;exitDy=0;entryX=0;entryY=0.5;entryDx=0;entryDy=0;exitPerimeter=0;" edge="1" parent="1" source="EavETX-BDon8GQSfiyvn-35" target="EavETX-BDon8GQSfiyvn-34">
          <mxGeometry width="50" height="50" relative="1" as="geometry">
            <mxPoint x="1038" y="207" as="sourcePoint" />
            <mxPoint x="1086" y="230" as="targetPoint" />
          </mxGeometry>
        </mxCell>
        <mxCell id="EavETX-BDon8GQSfiyvn-48" style="edgeStyle=orthogonalEdgeStyle;rounded=0;orthogonalLoop=1;jettySize=auto;html=1;entryX=0.5;entryY=1;entryDx=0;entryDy=0;" edge="1" parent="1" source="EavETX-BDon8GQSfiyvn-46" target="EavETX-BDon8GQSfiyvn-34">
          <mxGeometry relative="1" as="geometry" />
        </mxCell>
        <mxCell id="EavETX-BDon8GQSfiyvn-46" value="have" style="rhombus;whiteSpace=wrap;html=1;" vertex="1" parent="1">
          <mxGeometry x="1056" y="395" width="80" height="80" as="geometry" />
        </mxCell>
        <mxCell id="EavETX-BDon8GQSfiyvn-51" value="choice_2" style="ellipse;whiteSpace=wrap;html=1;" vertex="1" parent="1">
          <mxGeometry x="1275" y="139" width="120" height="80" as="geometry" />
        </mxCell>
        <mxCell id="EavETX-BDon8GQSfiyvn-52" value="choice_3" style="ellipse;whiteSpace=wrap;html=1;" vertex="1" parent="1">
          <mxGeometry x="1320" y="219" width="120" height="80" as="geometry" />
        </mxCell>
        <mxCell id="EavETX-BDon8GQSfiyvn-53" value="choice_4" style="ellipse;whiteSpace=wrap;html=1;" vertex="1" parent="1">
          <mxGeometry x="1320" y="300" width="120" height="80" as="geometry" />
        </mxCell>
        <mxCell id="EavETX-BDon8GQSfiyvn-54" value="choice_5" style="ellipse;whiteSpace=wrap;html=1;" vertex="1" parent="1">
          <mxGeometry x="1330" y="395" width="120" height="80" as="geometry" />
        </mxCell>
        <mxCell id="EavETX-BDon8GQSfiyvn-59" style="edgeStyle=orthogonalEdgeStyle;rounded=0;orthogonalLoop=1;jettySize=auto;html=1;" edge="1" parent="1" source="EavETX-BDon8GQSfiyvn-56" target="EavETX-BDon8GQSfiyvn-58">
          <mxGeometry relative="1" as="geometry" />
        </mxCell>
        <mxCell id="EavETX-BDon8GQSfiyvn-56" value="contains" style="rhombus;whiteSpace=wrap;html=1;" vertex="1" parent="1">
          <mxGeometry x="840" y="730" width="80" height="80" as="geometry" />
        </mxCell>
        <mxCell id="EavETX-BDon8GQSfiyvn-58" value="category" style="rounded=0;whiteSpace=wrap;html=1;" vertex="1" parent="1">
          <mxGeometry x="1116" y="740" width="120" height="60" as="geometry" />
        </mxCell>
        <mxCell id="EavETX-BDon8GQSfiyvn-60" value="id" style="ellipse;whiteSpace=wrap;html=1;" vertex="1" parent="1">
          <mxGeometry x="980" y="660" width="120" height="80" as="geometry" />
        </mxCell>
        <mxCell id="EavETX-BDon8GQSfiyvn-61" value="name" style="ellipse;whiteSpace=wrap;html=1;" vertex="1" parent="1">
          <mxGeometry x="1116" y="610" width="120" height="80" as="geometry" />
        </mxCell>
        <mxCell id="EavETX-BDon8GQSfiyvn-62" value="" style="endArrow=none;html=1;rounded=0;" edge="1" parent="1" source="EavETX-BDon8GQSfiyvn-58" target="EavETX-BDon8GQSfiyvn-60">
          <mxGeometry width="50" height="50" relative="1" as="geometry">
            <mxPoint x="1170" y="600" as="sourcePoint" />
            <mxPoint x="1220" y="550" as="targetPoint" />
          </mxGeometry>
        </mxCell>
        <mxCell id="EavETX-BDon8GQSfiyvn-63" value="" style="endArrow=none;html=1;rounded=0;entryX=0.5;entryY=1;entryDx=0;entryDy=0;" edge="1" parent="1" source="EavETX-BDon8GQSfiyvn-58" target="EavETX-BDon8GQSfiyvn-61">
          <mxGeometry width="50" height="50" relative="1" as="geometry">
            <mxPoint x="1128" y="750" as="sourcePoint" />
            <mxPoint x="1098" y="734" as="targetPoint" />
          </mxGeometry>
        </mxCell>
        <mxCell id="EavETX-BDon8GQSfiyvn-67" style="edgeStyle=orthogonalEdgeStyle;rounded=0;orthogonalLoop=1;jettySize=auto;html=1;" edge="1" parent="1" source="EavETX-BDon8GQSfiyvn-64" target="EavETX-BDon8GQSfiyvn-65">
          <mxGeometry relative="1" as="geometry" />
        </mxCell>
        <mxCell id="EavETX-BDon8GQSfiyvn-64" value="admin" style="rounded=0;whiteSpace=wrap;html=1;" vertex="1" parent="1">
          <mxGeometry x="200" y="840" width="120" height="60" as="geometry" />
        </mxCell>
        <mxCell id="EavETX-BDon8GQSfiyvn-91" style="edgeStyle=orthogonalEdgeStyle;rounded=0;orthogonalLoop=1;jettySize=auto;html=1;entryX=0.5;entryY=1;entryDx=0;entryDy=0;" edge="1" parent="1" source="EavETX-BDon8GQSfiyvn-65" target="EavETX-BDon8GQSfiyvn-58">
          <mxGeometry relative="1" as="geometry" />
        </mxCell>
        <mxCell id="EavETX-BDon8GQSfiyvn-92" style="edgeStyle=orthogonalEdgeStyle;rounded=0;orthogonalLoop=1;jettySize=auto;html=1;entryX=0.25;entryY=1;entryDx=0;entryDy=0;" edge="1" parent="1" source="EavETX-BDon8GQSfiyvn-65" target="EavETX-BDon8GQSfiyvn-16">
          <mxGeometry relative="1" as="geometry" />
        </mxCell>
        <mxCell id="EavETX-BDon8GQSfiyvn-65" value="create" style="rhombus;whiteSpace=wrap;html=1;" vertex="1" parent="1">
          <mxGeometry x="610" y="830" width="80" height="80" as="geometry" />
        </mxCell>
        <mxCell id="EavETX-BDon8GQSfiyvn-69" value="id" style="ellipse;whiteSpace=wrap;html=1;" vertex="1" parent="1">
          <mxGeometry x="50" y="760" width="120" height="80" as="geometry" />
        </mxCell>
        <mxCell id="EavETX-BDon8GQSfiyvn-70" value="name" style="ellipse;whiteSpace=wrap;html=1;" vertex="1" parent="1">
          <mxGeometry x="140" y="680" width="120" height="80" as="geometry" />
        </mxCell>
        <mxCell id="EavETX-BDon8GQSfiyvn-71" value="username" style="ellipse;whiteSpace=wrap;html=1;" vertex="1" parent="1">
          <mxGeometry x="270" y="630" width="120" height="80" as="geometry" />
        </mxCell>
        <mxCell id="EavETX-BDon8GQSfiyvn-72" value="password" style="ellipse;whiteSpace=wrap;html=1;" vertex="1" parent="1">
          <mxGeometry x="390" y="700" width="120" height="80" as="geometry" />
        </mxCell>
        <mxCell id="EavETX-BDon8GQSfiyvn-73" value="" style="endArrow=none;html=1;rounded=0;exitX=0.393;exitY=0.024;exitDx=0;exitDy=0;exitPerimeter=0;" edge="1" parent="1" source="EavETX-BDon8GQSfiyvn-64" target="EavETX-BDon8GQSfiyvn-71">
          <mxGeometry width="50" height="50" relative="1" as="geometry">
            <mxPoint x="580" y="640" as="sourcePoint" />
            <mxPoint x="630" y="590" as="targetPoint" />
          </mxGeometry>
        </mxCell>
        <mxCell id="EavETX-BDon8GQSfiyvn-74" value="" style="endArrow=none;html=1;rounded=0;exitX=1;exitY=0;exitDx=0;exitDy=0;" edge="1" parent="1" source="EavETX-BDon8GQSfiyvn-64" target="EavETX-BDon8GQSfiyvn-72">
          <mxGeometry width="50" height="50" relative="1" as="geometry">
            <mxPoint x="580" y="640" as="sourcePoint" />
            <mxPoint x="630" y="590" as="targetPoint" />
          </mxGeometry>
        </mxCell>
        <mxCell id="EavETX-BDon8GQSfiyvn-75" value="" style="endArrow=none;html=1;rounded=0;exitX=0.25;exitY=0;exitDx=0;exitDy=0;" edge="1" parent="1" source="EavETX-BDon8GQSfiyvn-64" target="EavETX-BDon8GQSfiyvn-70">
          <mxGeometry width="50" height="50" relative="1" as="geometry">
            <mxPoint x="330" y="850" as="sourcePoint" />
            <mxPoint x="421" y="780" as="targetPoint" />
          </mxGeometry>
        </mxCell>
        <mxCell id="EavETX-BDon8GQSfiyvn-76" value="" style="endArrow=none;html=1;rounded=0;exitX=0;exitY=0.5;exitDx=0;exitDy=0;" edge="1" parent="1" source="EavETX-BDon8GQSfiyvn-64" target="EavETX-BDon8GQSfiyvn-69">
          <mxGeometry width="50" height="50" relative="1" as="geometry">
            <mxPoint x="240" y="850" as="sourcePoint" />
            <mxPoint x="220" y="769" as="targetPoint" />
          </mxGeometry>
        </mxCell>
        <mxCell id="EavETX-BDon8GQSfiyvn-77" value="" style="endArrow=none;html=1;rounded=0;" edge="1" parent="1" source="EavETX-BDon8GQSfiyvn-31" target="EavETX-BDon8GQSfiyvn-78">
          <mxGeometry width="50" height="50" relative="1" as="geometry">
            <mxPoint x="1055" y="210" as="sourcePoint" />
            <mxPoint x="605" y="240" as="targetPoint" />
          </mxGeometry>
        </mxCell>
        <mxCell id="EavETX-BDon8GQSfiyvn-78" value="id_question" style="ellipse;whiteSpace=wrap;html=1;" vertex="1" parent="1">
          <mxGeometry x="746" y="170" width="120" height="80" as="geometry" />
        </mxCell>
        <mxCell id="EavETX-BDon8GQSfiyvn-79" value="id_user" style="ellipse;whiteSpace=wrap;html=1;" vertex="1" parent="1">
          <mxGeometry x="660" y="100" width="120" height="80" as="geometry" />
        </mxCell>
        <mxCell id="EavETX-BDon8GQSfiyvn-81" value="" style="endArrow=none;html=1;rounded=0;exitX=0.403;exitY=0.068;exitDx=0;exitDy=0;exitPerimeter=0;" edge="1" parent="1" source="EavETX-BDon8GQSfiyvn-31" target="EavETX-BDon8GQSfiyvn-79">
          <mxGeometry width="50" height="50" relative="1" as="geometry">
            <mxPoint x="1055" y="210" as="sourcePoint" />
            <mxPoint x="1105" y="160" as="targetPoint" />
          </mxGeometry>
        </mxCell>
        <mxCell id="EavETX-BDon8GQSfiyvn-82" value="" style="endArrow=none;html=1;rounded=0;" edge="1" parent="1" source="EavETX-BDon8GQSfiyvn-31" target="EavETX-BDon8GQSfiyvn-83">
          <mxGeometry width="50" height="50" relative="1" as="geometry">
            <mxPoint x="1055" y="210" as="sourcePoint" />
            <mxPoint x="675" y="390" as="targetPoint" />
          </mxGeometry>
        </mxCell>
        <mxCell id="EavETX-BDon8GQSfiyvn-83" value="answer" style="ellipse;whiteSpace=wrap;html=1;" vertex="1" parent="1">
          <mxGeometry x="540" y="140" width="120" height="80" as="geometry" />
        </mxCell>
        <mxCell id="EavETX-BDon8GQSfiyvn-84" value="" style="endArrow=none;html=1;rounded=0;entryX=0;entryY=1;entryDx=0;entryDy=0;" edge="1" parent="1" target="EavETX-BDon8GQSfiyvn-51">
          <mxGeometry width="50" height="50" relative="1" as="geometry">
            <mxPoint x="1200" y="250" as="sourcePoint" />
            <mxPoint x="630" y="470" as="targetPoint" />
          </mxGeometry>
        </mxCell>
        <mxCell id="EavETX-BDon8GQSfiyvn-85" value="" style="endArrow=none;html=1;rounded=0;entryX=0.04;entryY=0.633;entryDx=0;entryDy=0;exitX=1;exitY=0.5;exitDx=0;exitDy=0;entryPerimeter=0;" edge="1" parent="1" source="EavETX-BDon8GQSfiyvn-34" target="EavETX-BDon8GQSfiyvn-52">
          <mxGeometry width="50" height="50" relative="1" as="geometry">
            <mxPoint x="1200" y="260" as="sourcePoint" />
            <mxPoint x="1303" y="217" as="targetPoint" />
          </mxGeometry>
        </mxCell>
        <mxCell id="EavETX-BDon8GQSfiyvn-86" value="" style="endArrow=none;html=1;rounded=0;exitX=1;exitY=0.5;exitDx=0;exitDy=0;" edge="1" parent="1" source="EavETX-BDon8GQSfiyvn-34" target="EavETX-BDon8GQSfiyvn-53">
          <mxGeometry width="50" height="50" relative="1" as="geometry">
            <mxPoint x="1206" y="259" as="sourcePoint" />
            <mxPoint x="1335" y="280" as="targetPoint" />
          </mxGeometry>
        </mxCell>
        <mxCell id="EavETX-BDon8GQSfiyvn-87" value="" style="endArrow=none;html=1;rounded=0;" edge="1" parent="1" target="EavETX-BDon8GQSfiyvn-54">
          <mxGeometry width="50" height="50" relative="1" as="geometry">
            <mxPoint x="1200" y="250" as="sourcePoint" />
            <mxPoint x="1342" y="326" as="targetPoint" />
          </mxGeometry>
        </mxCell>
      </root>
    </mxGraphModel>
  </diagram>
</mxfile>
